<svg xmlns="http://www.w3.org/2000/svg" width="689" height="104" viewBox="0 0 689 104">
    <path fill="#F3F4EE" fill-rule="evenodd" d="M37.595 86.348c4.05 0 7.342-1.11 9.873-3.333 2.532-2.222 3.848-5.177 3.95-8.863H72c-.05 5.555-1.57 10.643-4.557 15.265-2.987 4.62-7.076 8.207-12.266 10.757-5.19 2.55-10.924 3.826-17.202 3.826-11.747 0-21.013-3.725-27.798-11.174C3.392 85.376 0 75.086 0 61.955v-1.44C0 47.89 3.367 37.813 10.101 30.288 16.835 22.763 26.076 19 37.823 19c10.278 0 18.519 2.917 24.721 8.75C68.747 33.583 71.9 41.348 72 51.045H51.418c-.102-4.242-1.418-7.689-3.95-10.34-2.531-2.652-5.873-3.978-10.025-3.978-5.114 0-8.975 1.856-11.582 5.568-2.608 3.713-3.912 9.735-3.912 18.069v2.272c0 8.435 1.291 14.495 3.874 18.182 2.582 3.687 6.506 5.53 11.772 5.53zM78 60.742c0-8.13 1.573-15.378 4.718-21.742 3.145-6.364 7.673-11.288 13.583-14.773 5.91-3.485 12.772-5.227 20.585-5.227 11.11 0 20.178 3.384 27.205 10.152 7.026 6.767 10.945 15.96 11.757 27.575l.152 5.606c0 12.576-3.526 22.664-10.578 30.265C138.371 100.2 128.91 104 117.038 104c-11.871 0-21.345-3.788-28.422-11.364C81.539 85.061 78 74.758 78 61.727v-.985zm22 1.06c0 7.837 1.47 13.829 4.412 17.977 2.94 4.147 7.15 6.221 12.626 6.221 5.324 0 9.482-2.048 12.474-6.145C132.504 75.758 134 69.206 134 60.198c0-7.684-1.496-13.638-4.488-17.862-2.992-4.224-7.2-6.336-12.626-6.336-5.375 0-9.533 2.1-12.474 6.298-2.941 4.198-4.412 10.7-4.412 19.504zm85.677-41.296l.684 9.415C192.24 22.641 200.12 19 210.002 19c8.717 0 15.204 2.536 19.46 7.607C233.72 31.678 235.9 39.26 236 49.353V102h-21.969V49.88c0-4.62-1.014-7.97-3.04-10.055-2.028-2.083-5.398-3.125-10.11-3.125-6.184 0-10.82 2.61-13.912 7.833V102H165V20.506h20.677zM276.064 0v20.028h14.098V35.99h-14.098v40.658c0 3.011.584 5.17 1.752 6.475 1.169 1.305 3.404 1.957 6.707 1.957 2.438 0 4.597-.175 6.477-.527v16.49A45.846 45.846 0 0 1 277.664 103c-15.444 0-23.319-7.705-23.624-23.115V35.99H242V20.028h12.04V0h22.024zm69.778 102.485c-1.012-1.97-1.745-4.42-2.2-7.349-5.313 5.91-12.218 8.864-20.717 8.864-8.044 0-14.709-2.323-19.995-6.97-5.287-4.646-7.93-10.505-7.93-17.575 0-8.687 3.225-15.354 9.675-20 6.45-4.647 15.771-6.995 27.963-7.046h10.093v-4.697c0-3.788-.974-6.818-2.922-9.09-1.947-2.274-5.02-3.41-9.22-3.41-3.693 0-6.589.884-8.688 2.652-2.1 1.767-3.15 4.192-3.15 7.272h-21.93c0-4.747 1.467-9.141 4.401-13.181 2.935-4.04 7.083-7.21 12.445-9.508C319.03 20.149 325.05 19 331.727 19c10.119 0 18.15 2.538 24.094 7.614 5.944 5.075 8.916 12.21 8.916 21.401v35.53c.05 7.778 1.138 13.662 3.263 17.652v1.288h-22.158zM327.859 87c3.263 0 6.27-.718 9.023-2.155 2.753-1.436 4.793-3.364 6.118-5.783V65h-8.259c-11.063 0-16.95 3.78-17.665 11.34L317 77.625c0 2.722.969 4.965 2.906 6.729 1.937 1.764 4.588 2.646 7.953 2.646zm84.736-.652c4.05 0 7.342-1.11 9.873-3.333 2.532-2.222 3.848-5.177 3.95-8.863H447c-.05 5.555-1.57 10.643-4.557 15.265-2.987 4.62-7.076 8.207-12.266 10.757-5.19 2.55-10.924 3.826-17.202 3.826-11.747 0-21.013-3.725-27.798-11.174C378.392 85.376 375 75.086 375 61.955v-1.44c0-12.626 3.367-22.702 10.101-30.227C391.835 22.763 401.076 19 412.823 19c10.278 0 18.519 2.917 24.721 8.75 6.203 5.833 9.355 13.598 9.456 23.295h-20.582c-.102-4.242-1.418-7.689-3.95-10.34-2.531-2.652-5.873-3.978-10.025-3.978-5.114 0-8.975 1.856-11.582 5.568-2.608 3.713-3.912 9.735-3.912 18.069v2.272c0 8.435 1.291 14.495 3.874 18.182 2.582 3.687 6.506 5.53 11.772 5.53zM482.064 0v20.028h14.098V35.99h-14.098v40.658c0 3.011.584 5.17 1.752 6.475 1.169 1.305 3.404 1.957 6.707 1.957 2.438 0 4.597-.175 6.477-.527v16.49A45.846 45.846 0 0 1 483.664 103c-15.444 0-23.319-7.705-23.624-23.115V35.99H448V20.028h12.04V0h22.024zm106.674 93.209c-5.417 6.527-12.91 9.791-22.477 9.791-8.809 0-15.529-2.51-20.161-7.532-4.632-5.021-6.999-12.377-7.1-22.068V20h21.945v52.647c0 8.486 3.898 12.729 11.695 12.729 7.441 0 12.554-2.561 15.339-7.683V20H610v81.494h-20.655l-.607-8.285zm78.928-13.376c0-2.676-1.329-4.785-3.986-6.325s-6.921-2.917-12.793-4.13c-19.537-4.09-29.306-12.373-29.306-24.848 0-7.272 3.025-13.346 9.073-18.22 6.048-4.873 13.957-7.31 23.726-7.31 10.426 0 18.765 2.45 25.016 7.348 6.25 4.9 9.376 11.263 9.376 19.091h-21.941c0-3.13-1.012-5.72-3.037-7.765s-5.188-3.068-9.49-3.068c-3.695 0-6.555.833-8.58 2.5-2.024 1.667-3.036 3.788-3.036 6.364 0 2.424 1.151 4.381 3.454 5.87 2.303 1.49 6.188 2.779 11.654 3.865 5.466 1.085 10.072 2.31 13.818 3.674C683.204 61.12 689 68.469 689 78.924c0 7.475-3.214 13.523-9.642 18.144-6.428 4.621-14.729 6.932-24.902 6.932-6.884 0-12.996-1.225-18.336-3.674-5.34-2.45-9.528-5.808-12.565-10.076-3.037-4.268-4.555-8.876-4.555-13.826h20.803c.202 3.89 1.645 6.869 4.327 8.94 2.683 2.07 6.276 3.106 10.781 3.106 4.201 0 7.377-.796 9.528-2.387 2.151-1.59 3.227-3.674 3.227-6.25z"/>
</svg>
