<svg xmlns="http://www.w3.org/2000/svg" width="44" height="44" viewBox="0 0 44 44">
    <g fill="none" fill-rule="evenodd" transform="translate(1 1)">
        <circle cx="21" cy="21" r="21" fill-rule="nonzero" stroke="#4D9D43" stroke-width="2"/>
        <path fill="#98C98F" d="M28.538 20.505h4.98c-.006-6.02-4.42-11.12-10.358-11.969v5.089a7.095 7.095 0 0 1 5.378 6.88z"/>
        <g fill="#4D9D43">
            <path fill-rule="nonzero" d="M33.42 21.755h-5.063a.416.416 0 0 0-.405.318 6.64 6.64 0 0 1-6.862 5.094c-3.216-.198-5.824-2.688-6.188-5.901a6.625 6.625 0 0 1 1.65-5.203 6.645 6.645 0 0 1 4.948-2.23.417.417 0 0 0 .415-.416v-5A.417.417 0 0 0 21.5 8a12.456 12.456 0 0 0-9.077 3.948c-4.491 4.807-4.497 12.286-.015 17.099l-1.038 1.042H9.052v.833h2.49a.42.42 0 0 0 .295-.12L13 29.635a12.367 12.367 0 0 0 7.811 3.35c.223.01.446.015.67.015 6.203-.02 11.457-4.604 12.349-10.77a.416.416 0 0 0-.099-.329.403.403 0 0 0-.31-.146zM20.851 32.151a11.564 11.564 0 0 1-7.236-3.14l1.54-1.547-.585-.589-1.54 1.547a11.677 11.677 0 0 1-2.252-12.396 11.599 11.599 0 0 1 10.306-7.187v4.171c-3.797.214-6.826 3.25-7.044 7.063-.217 3.807 2.454 7.177 6.199 7.818 3.744.645 7.375-1.641 8.433-5.302h4.259c-1.08 5.77-6.24 9.859-12.08 9.562z"/>
            <path fill-rule="nonzero" d="M33.948 10.922v-.833h-2.49a.42.42 0 0 0-.295.12l-1.183 1.187a12.32 12.32 0 0 0-6.768-3.271.43.43 0 0 0-.332.099.42.42 0 0 0-.14.312v5.089c0 .193.13.36.316.406a6.648 6.648 0 0 1 5.062 6.474c0 .23.187.417.415.417h4.98a.417.417 0 0 0 .414-.417 12.535 12.535 0 0 0-3.36-8.52l1.063-1.063h2.318zm-.856 9.167h-4.154a7.475 7.475 0 0 0-5.363-6.782V9.026a11.507 11.507 0 0 1 5.82 2.964l-1.552 1.557.586.588 1.551-1.552a11.694 11.694 0 0 1 3.112 7.506z"/>
            <path d="M16.936 21.339h4.15v.833h-4.15zM16.936 22.589h4.15v.833h-4.15zM16.936 23.839h.83v.833h-.83zM18.18 23.839h1.66v.833h-1.66zM20.255 23.839h.83v.833h-.83zM16.936 18.839h4.15v.833h-4.15zM16.936 17.589h4.15v.833h-4.15zM16.936 16.339h.83v.833h-.83zM18.18 16.339h1.66v.833h-1.66zM20.255 16.339h.83v.833h-.83zM21.915 21.339h4.15v.833h-4.15zM21.915 22.589h4.15v.833h-4.15zM25.234 23.839h.83v.833h-.83zM23.16 23.839h1.66v.833h-1.66zM21.915 23.839h.83v.833h-.83zM21.915 18.839h4.15v.833h-4.15zM21.915 17.589h4.15v.833h-4.15zM25.234 16.339h.83v.833h-.83zM23.16 16.339h1.66v.833h-1.66zM21.915 16.339h.83v.833h-.83z"/>
        </g>
    </g>
</svg>
