<svg xmlns="http://www.w3.org/2000/svg" width="44" height="44" viewBox="0 0 44 44">
    <g fill="none" fill-rule="evenodd" transform="translate(1 1)">
        <circle cx="21" cy="21" r="21" stroke="#4D9D43" stroke-width="2"/>
        <g fill="#98C98F">
            <path d="M19.983 22.933c0 .84-.683 1.52-1.527 1.52-.845 0-1.527-.68-1.527-1.52 0-.841.682-1.52 1.527-1.52.844 0 1.527.679 1.527 1.52zM27.23 23.693c0 .84-.681 1.52-1.526 1.52s-1.527-.68-1.527-1.52c0-.841.682-1.52 1.527-1.52.84 0 1.527.679 1.527 1.52zM32.566 18.376c0 .841-.683 1.52-1.527 1.52-.845 0-1.527-.679-1.527-1.52 0-.84.682-1.52 1.527-1.52.844 0 1.527.68 1.527 1.52zM13.498 29.01c0 .84-.683 1.52-1.527 1.52-.845 0-1.527-.68-1.527-1.52 0-.842.682-1.521 1.527-1.521.844 0 1.527.68 1.527 1.52z"/>
        </g>
        <path fill="#4D9D43" fill-rule="nonzero" d="M31.044 16.476c-.702 0-1.346.385-1.68.998a1.893 1.893 0 0 0 .09 1.947l-2.7 2.69a1.891 1.891 0 0 0-2.859 1.012l-3.55-.371a1.899 1.899 0 0 0-1.374-1.649 1.897 1.897 0 0 0-2.038.685 1.892 1.892 0 0 0-.09 2.142l-3.77 3.53a1.938 1.938 0 0 0-2.586.3 1.907 1.907 0 0 0 .038 2.584 1.944 1.944 0 0 0 2.596.214 1.927 1.927 0 0 0 .472-2.551l3.77-3.53a1.893 1.893 0 0 0 2.906-.974l3.55.37a1.9 1.9 0 0 0 1.398 1.649 1.897 1.897 0 1 0 2.085-2.88l2.701-2.688a1.906 1.906 0 0 0 2.859-2.2 1.941 1.941 0 0 0-1.818-1.278zM11.976 30.145a1.14 1.14 0 1 1 0-2.28c.63 0 1.145.508 1.145 1.14 0 .631-.516 1.14-1.145 1.14zm6.48-6.072c-.63 0-1.146-.509-1.146-1.14 0-.628.511-1.14 1.146-1.14.63 0 1.145.508 1.145 1.14 0 .627-.51 1.14-1.145 1.14zm7.248.755c-.63 0-1.145-.508-1.145-1.14 0-.627.51-1.14 1.145-1.14.63 0 1.145.508 1.145 1.14 0 .632-.515 1.14-1.145 1.14zm5.34-5.311a1.14 1.14 0 1 1 0-2.28c.63-.001 1.145.507 1.145 1.14 0 .631-.516 1.14-1.145 1.14z"/>
        <path fill="#4D9D43" d="M10.83 19.892c.1 0 .2-.038.272-.11l3.164-3.15 1.828 1.82a.384.384 0 0 0 .539 0l3.927-3.91 3.355 3.34a.384.384 0 0 0 .539 0l6.59-6.566v.603a.382.382 0 0 0 .763 0V10.4a.318.318 0 0 0-.048-.17.47.47 0 0 0-.052-.082.286.286 0 0 0-.129-.095c-.005 0-.005-.004-.01-.004a.606.606 0 0 0-.133-.029h-1.541a.382.382 0 0 0-.382.38c0 .21.172.38.382.38h.606l-6.323 6.3-3.355-3.34a.384.384 0 0 0-.539 0l-3.922 3.91-1.828-1.82a.384.384 0 0 0-.539 0l-3.43 3.417a.37.37 0 0 0-.082.413.369.369 0 0 0 .348.233z"/>
    </g>
</svg>
