<svg xmlns="http://www.w3.org/2000/svg" width="166" height="68" viewBox="0 0 166 68">
    <g fill="#4D9D43" fill-rule="evenodd">
        <path d="M41.623 3.657c-.287.932-.492 1.796-.73 2.653-.371 1.338-1.347 2.261-2.205 3.268-.81.95-1.661 1.866-2.25 2.99-1.554 2.966-1.274 5.81.518 8.562.404.62.859 1.205 1.27 1.82.464.697.424 1.364-.168 1.963-1.967 1.988-4.32 3.208-7.097 3.65-2.512.401-4.923-.075-7.345-.626-2.288-.521-4.587-.93-6.95-1.01-3.7-.122-7.289.359-10.716 1.766-2.173.891-4.141 2.131-5.674 3.97-.032.039-.093.053-.148.083-.19-.174-.112-.396-.112-.59C.012 21.696.012 11.238.013.78c0-.764.013-.78.75-.78H48.89c.739 0 .752.016.752.78v66.344c0 .78-.006.784-.802.785-1.214.002-2.428-.007-3.641.004-.4.003-.58-.073-.499-.554.414-2.433-.515-4.464-1.978-6.307-1.465-1.845-3.343-3.176-5.4-4.274-3.872-2.068-7.973-3.592-12.08-5.102-4.288-1.576-8.654-2.914-12.999-4.316-1.55-.5-3.052-1.131-4.465-1.965-2.794-1.649-3.749-4.075-2.77-7.175.907-2.879 2.954-4.612 5.702-5.596 2.138-.767 4.346-.905 6.604-.706 2.168.19 4.307.635 6.47.789 4.042.287 7.905-.32 11.276-2.814a10.335 10.335 0 0 0 2.686-2.903c.53-.862 1.212-1.6 1.849-2.376.39-.474.876-.82 1.436-1.09 1.005-.486 1.986-1.011 2.862-1.73 1.318-1.08 1.937-2.523 2.315-4.129.424-1.804.078-3.537-.382-5.273-.825-3.107-2.357-5.87-4.084-8.54-.042-.064-.08-.13-.12-.195M.098 51.826c.396.471.75.932 1.144 1.354 1.385 1.477 3.162 2.332 4.997 3.065 3.503 1.399 7.159 2.343 10.723 3.562 2.55.873 4.924 2.082 6.742 4.16.797.911 1.426 1.925 1.472 3.188.026.731-.013.754-.77.754H3.6c-1.004 0-2.009-.006-3.013.003-.355.003-.577-.082-.576-.502.007-5.13.006-10.26.01-15.391 0-.048.037-.096.077-.193M65.897 50.726c.469-1.317.933-2.616 1.393-3.916.893-2.521 1.789-5.041 2.667-7.568.138-.398.34-.588.777-.58 1.08.02 2.16.02 3.24 0 .441-.007.601.153.6.598-.01 5.513-.009 11.026 0 16.539 0 .44-.148.616-.594.602a28.574 28.574 0 0 0-2.274.004c-.548.027-.72-.17-.716-.717.019-3.745.01-7.49.01-11.235v-.606l-.075-.013c-.383 1.064-.771 2.127-1.15 3.193-.9 2.538-1.806 5.075-2.684 7.621-.158.459-.398.635-.868.613a19.413 19.413 0 0 0-1.877.001c-.442.023-.626-.164-.76-.57-1.044-3.152-2.109-6.298-3.172-9.444a10.165 10.165 0 0 0-.636-1.515v11.899c-.001.756-.007.76-.764.763-.569.002-1.138-.013-1.706.003-.394.012-.547-.158-.533-.544.016-.436.003-.874.002-1.311V39.487c.001-.816.004-.817.823-.818 1.119-.002 2.24.038 3.355-.016.639-.03.899.234 1.086.803 1.19 3.604 2.408 7.199 3.617 10.796.052.155.06.333.24.474M156.602 50.307l.001 2.11c.001.207-.019.422.137.595 1.26 1.402 3.535 1.936 4.61-.306.675-1.404.634-2.868.48-4.346-.08-.763-.309-1.502-.922-2.024-.825-.703-1.933-.71-2.98.056-.799.583-1.54 1.246-1.34 2.435.081.48.014.986.014 1.48m0 5.03v4.577c0 .247-.007.494-.005.74.001.286-.141.415-.42.415-.947-.002-1.895-.003-2.842 0-.285 0-.414-.144-.411-.423 0-.133-.005-.266-.005-.398V44.06c0-.825.003-.827.811-.828.777-.002 1.554.01 2.33-.004.382-.006.56.136.544.533-.017.435-.004.872-.004 1.398.465-.43.743-.918 1.175-1.274 2.225-1.83 5.918-1.112 7.152 1.49 1.41 2.972 1.291 5.988-.289 8.845-.984 1.78-2.652 2.591-4.715 2.412-1.47-.127-1.469-.146-3.321-1.296M131.056 38.339c1.586-.107 3.169.176 4.753.453.451.079.703.252.665.778-.046.643-.021 1.292-.008 1.938.008.382-.14.464-.484.344a19.08 19.08 0 0 0-3.856-.914c-3.056-.388-5.736.826-6.514 4.212-.423 1.838-.407 3.649.266 5.423.83 2.192 2.532 3.285 4.757 3.487 1.909.173 3.722-.266 5.453-1.069.502-.233.589-.18.6.38.01.514-.036 1.031.013 1.54.057.595-.241.846-.744 1.029-1.13.41-2.3.708-3.481.76-1.977.087-3.973.211-5.894-.53-2.472-.952-4.087-2.692-4.82-5.222a12.176 12.176 0 0 1 .001-6.846c.783-2.728 2.581-4.48 5.276-5.33 1.301-.411 2.633-.497 4.017-.433M115.953 49.993c-.035-1.366-.165-2.598-.931-3.671-.997-1.395-3.095-1.428-3.982.019-1.336 2.18-1.287 4.468-.15 6.701.44.865 1.273 1.335 2.312 1.256.957-.073 1.678-.506 2.127-1.377.493-.954.564-1.99.624-2.928m-9.688-.435c-.092-1.67.377-3.367 1.682-4.723 1.624-1.688 3.706-2.097 5.949-1.89.886.082 1.744.282 2.556.692 1.987 1.003 2.965 2.67 3.282 4.812a8.918 8.918 0 0 1-.35 4.149c-.77 2.34-3.043 3.982-5.509 4.032-1.114.022-2.23.093-3.306-.267-2.325-.777-3.697-2.396-4.187-4.797-.124-.605-.101-1.208-.117-2.008M95.615 45.224c.808-.78 1.534-1.573 2.57-1.98 1.766-.694 3.97-.442 5.05 1.315.363.59.565 1.252.568 1.944.014 3.079-.002 6.158.014 9.237.003.49-.148.685-.651.663a27.672 27.672 0 0 0-2.274 0c-.493.02-.665-.154-.66-.655.02-2.185-.004-4.371.015-6.557.007-.687-.058-1.364-.135-2.04-.09-.792-.746-1.572-1.816-1.252-1.212.363-1.94 1.264-2.597 2.253-.132.197-.08.444-.08.67-.002 2.281-.018 4.562.01 6.842.008.582-.182.774-.75.741a20.351 20.351 0 0 0-2.16 0c-.531.025-.681-.185-.68-.696.017-3.649.01-7.298.01-10.947-.001-1.53 0-1.53 1.534-1.53.511 0 1.023.012 1.535 0 .367-.01.51.157.5.515-.012.492-.003.985-.003 1.477M84.647 51.864c0-.42.002-.723-.001-1.027-.002-.188-.064-.351-.28-.357-1.077-.03-2.172-.127-3.113.567-.544.4-.786.954-.681 1.631.116.753.534 1.253 1.296 1.393.915.169 1.636-.3 2.354-.768.605-.395.39-1.008.425-1.44m3.461-2.105c0 1.007-.003 2.015.002 3.022.004 1.025.182 1.261 1.178 1.528.238.064.283.212.296.416.027.454-.04.91.067 1.363.062.26-.164.324-.34.369a6.637 6.637 0 0 1-2.752.12 2.124 2.124 0 0 1-1.53-1.09c-.266-.482-.484-.348-.764-.09-.569.528-1.237.908-1.975 1.083-1.357.322-2.7.342-3.88-.595-1.252-.993-1.557-2.337-1.322-3.825.294-1.858 1.564-2.83 3.248-3.342 1.202-.366 2.447-.484 3.7-.457.466.01.628-.147.625-.621-.01-1.706-.76-2.452-2.62-2.342-1.216.072-2.338.427-3.415.96-.378.187-.472.047-.46-.312.01-.285-.003-.57.002-.855.029-1.443-.244-1.222 1.213-1.652 1.985-.586 3.998-.786 6.039-.22 1.588.44 2.67 1.8 2.686 3.46.01 1.027.002 2.054.002 3.08M145.518 51.89v-1.042c0-.22-.087-.368-.327-.376-1.043-.039-2.077-.053-3.004.563-.662.44-.805 1.087-.695 1.79.102.648.525 1.08 1.175 1.236.886.213 1.6-.186 2.318-.638.645-.406.553-1.008.533-1.533m3.46-2.153c.076 1.026-.117 2.282.101 3.528.105.601.326 1.055 1.034 1.045.114-.001.26.023.283.147.112.575.253 1.15.14 1.744-.028.148-.148.232-.277.258-1.158.237-2.321.375-3.443-.135-.398-.181-.741-.475-.915-.9-.16-.395-.319-.351-.609-.098-.954.833-2.066 1.346-3.342 1.365-2.658.04-4.294-1.85-3.987-4.483.259-2.22 2.165-3.344 4.232-3.718.91-.164 1.832-.283 2.762-.235.409.022.605-.124.568-.553-.028-.32.014-.653-.053-.963-.215-.997-1.234-1.604-2.349-1.497-1.295.125-2.53.44-3.68 1.053-.338.181-.4.033-.401-.255-.003-.608.008-1.216-.003-1.824-.005-.282.159-.396.384-.491.86-.364 1.77-.552 2.682-.7a10.597 10.597 0 0 1 3.831.085c1.928.388 3.042 1.704 3.043 3.668v2.96"/>
    </g>
</svg>
