<svg xmlns="http://www.w3.org/2000/svg" width="44" height="44" viewBox="0 0 44 44">
    <g fill="none" fill-rule="evenodd" transform="translate(1 1)">
        <circle cx="21" cy="21" r="21" fill-rule="nonzero" stroke="#4D9D43" stroke-width="2"/>
        <g fill="#98C98F">
            <path d="M19.549 11.168c0 .807-.65 1.467-1.456 1.467-.8 0-1.456-.655-1.456-1.467s.65-1.467 1.456-1.467a1.46 1.46 0 0 1 1.456 1.467zM26.454 15.932c0 .807-.65 1.467-1.455 1.467-.8 0-1.456-.655-1.456-1.467s.65-1.467 1.456-1.467a1.46 1.46 0 0 1 1.455 1.467zM31.545 10.801c0 .807-.65 1.467-1.456 1.467-.8 0-1.456-.655-1.456-1.467 0-.811.651-1.467 1.456-1.467a1.46 1.46 0 0 1 1.456 1.467zM13.371 17.028c0 .807-.65 1.467-1.456 1.467-.8 0-1.455-.656-1.455-1.467 0-.812.65-1.467 1.455-1.467.806.004 1.456.66 1.456 1.467z"/>
        </g>
        <path fill="#4D9D43" fill-rule="nonzero" d="M23.18 21.486h-4.36c-.6 0-1.09.49-1.09 1.1V29.9c0 .605.486 1.099 1.09 1.099h4.36c.6 0 1.09-.49 1.09-1.099v-7.316c0-.609-.49-1.099-1.09-1.099zm.363 8.415a.366.366 0 0 1-.364.366h-4.358a.366.366 0 0 1-.364-.366v-7.316c0-.201.164-.366.364-.366h4.358c.2 0 .364.165.364.366v7.316zM30.91 17.77h-4.36c-.6 0-1.09.492-1.09 1.104v11.022c0 .607.486 1.104 1.09 1.104h4.36c.6 0 1.09-.492 1.09-1.104V18.874c0-.612-.49-1.104-1.09-1.104zm.363 12.126a.367.367 0 0 1-.364.368H26.55a.367.367 0 0 1-.363-.368V18.874c0-.202.163-.368.363-.368h4.36c.2 0 .363.166.363.368v11.022zM15.45 19.703h-4.36c-.6 0-1.09.488-1.09 1.094v9.108c0 .602.486 1.095 1.09 1.095h4.36c.6 0 1.09-.488 1.09-1.095v-9.112a1.09 1.09 0 0 0-1.09-1.09zm.363 10.202c0 .201-.163.365-.363.365h-4.36a.365.365 0 0 1-.363-.365v-9.112c0-.2.164-.365.364-.365h4.359c.2 0 .363.164.363.365v9.112zM26.871 15.979c0-.358-.105-.711-.306-1.01l2.588-2.595a1.827 1.827 0 0 0 2.433-.372 1.841 1.841 0 0 0-.123-2.463 1.828 1.828 0 0 0-2.456-.124 1.844 1.844 0 0 0-.37 2.436l-2.585 2.6a1.807 1.807 0 0 0-2.273.211l-3.992-2.738a1.834 1.834 0 0 0-.636-2.23 1.826 1.826 0 0 0-2.305.175 1.848 1.848 0 0 0-.293 2.303L12.94 15.58a1.853 1.853 0 0 0-2.478.284 1.868 1.868 0 0 0 .04 2.504 1.854 1.854 0 0 0 2.489.207 1.87 1.87 0 0 0 .452-2.463l3.613-3.408a1.81 1.81 0 0 0 2.32-.18l3.992 2.74a1.839 1.839 0 0 0 .384 2.004 1.82 1.82 0 0 0 1.994.403 1.842 1.842 0 0 0 1.125-1.692zm3.288-6.234a1.1 1.1 0 0 1 1.098 1.101 1.1 1.1 0 0 1-1.098 1.1 1.1 1.1 0 0 1-1.097-1.1c0-.605.494-1.1 1.097-1.1zm-18.27 8.43a1.1 1.1 0 0 1-1.098-1.1c0-.606.49-1.1 1.098-1.1a1.1 1.1 0 0 1 1.097 1.1c0 .61-.49 1.1-1.097 1.1zm6.21-5.861a1.1 1.1 0 0 1-1.097-1.1c0-.606.489-1.102 1.097-1.102a1.1 1.1 0 0 1 1.098 1.101 1.1 1.1 0 0 1-1.098 1.1zm6.947 4.76a1.1 1.1 0 0 1-1.097-1.1c0-.605.489-1.1 1.097-1.1a1.1 1.1 0 0 1 1.098 1.1c-.005.61-.494 1.1-1.098 1.1z"/>
    </g>
</svg>
