<svg xmlns="http://www.w3.org/2000/svg" width="44" height="44" viewBox="0 0 44 44">
    <g fill="none" fill-rule="evenodd" transform="translate(1 1)">
        <circle cx="21" cy="21" r="21" stroke="#4D9D43" stroke-width="2"/>
        <g fill="#98C98F">
            <path d="M15.4 13.312l-3.175 3.402h1.6l1.575-1.687zM15.4 12.429H13L9.47 16.21c.13.305.415.503.73.503h.425l3.99-4.275-3.99 4.275h1.6l3.175-3.402v-.883z"/>
            <path d="M11.4 12.429l-2 2.142v1.286c0 .123.025.241.07.354L13 12.429h-1.6zM10.2 12.429c-.44 0-.8.385-.8.857v1.285l2-2.142h-1.2zM13.825 16.714H15.4v-1.687zM21 25.286H10.2c-.44 0-.8.385-.8.857v1.312l2.01-2.153-2.01 2.153v1.26c0 .128.03.251.08.369l3.53-3.782-3.53 3.782c.13.3.41.487.72.487h.425l3.99-4.275-3.99 4.275h1.6l3.99-4.275-3.99 4.275h1.6l3.99-4.275-3.99 4.275h1.6l3.99-4.275-3.99 4.275h1.6L21 25.312v-.026zM21 25.312l-3.975 4.26h1.6L21 27.026z"/>
            <path d="M18.625 29.571H21v-2.544z"/>
        </g>
        <path fill="#4D9D43" fill-rule="nonzero" d="M31.8 12h-16V9.857h.8V9h-2.4v.857h.8V12h-4.8c-.665 0-1.2.573-1.2 1.286v2.571c0 .713.535 1.286 1.2 1.286H15v2.143h-.8v.857h2.4v-.857h-.8v-2.143h16c.665 0 1.2-.573 1.2-1.286v-2.571c0-.713-.535-1.286-1.2-1.286zM15 14.85l-1.34 1.436h-.47l1.81-1.94v.504zm0-1.714l-2.94 3.15h-.47l3.2-3.429H15v.279zm-5.2 2.116v-.504l1.765-1.89h.47L9.8 15.251zm.4-2.395h.235l-.635.68v-.251c0-.236.18-.429.4-.429zm-.185 3.375l3.15-3.375h.495l-3.2 3.429h-.26a.374.374 0 0 1-.185-.054zm4.775.054l.21-.225v.225h-.21zm17.41-.429c0 .236-.18.429-.4.429h-16v-3.429h16c.22 0 .4.193.4.429v2.571zM31.8 24.857H21.4v-2.143h.8v-.857h-2.4v.857h.8v2.143H10.2c-.665 0-1.2.573-1.2 1.286v2.571C9 29.427 9.535 30 10.2 30h10.4v2.143h-.8V33h2.4v-.857h-.8V30h10.4c.665 0 1.2-.573 1.2-1.286v-2.571c0-.713-.535-1.286-1.2-1.286zm-15.41.857h.47l-3.2 3.429h-.47l3.2-3.429zm-4.33 3.429h-.47l3.2-3.429h.47l-3.2 3.429zm5.93-3.429h.47l-3.2 3.429h-.47l3.2-3.429zm1.6 0h.47l-3.2 3.429h-.47l3.2-3.429zm1.01.632v.504l-2.14 2.293h-.47l2.61-2.797zm-10.8 1.79v-.504l1.79-1.918h.47L9.8 28.136zm.4-2.422h.26l-.66.707v-.278c0-.236.18-.429.4-.429zm-.17 3.386l3.16-3.386h.47l-3.2 3.429h-.26a.382.382 0 0 1-.17-.043zm9.56.043l1.01-1.082v1.082h-1.01zm12.61-.429c0 .236-.18.429-.4.429H21.4v-3.429h10.4c.22 0 .4.193.4.429v2.571z"/>
    </g>
</svg>
