<svg xmlns="http://www.w3.org/2000/svg" width="44" height="44" viewBox="0 0 44 44">
    <g fill="none" fill-rule="evenodd" transform="translate(1 1)">
        <circle cx="21" cy="21" r="21" fill-rule="nonzero" stroke="#4D9D43" stroke-width="2"/>
        <path fill="#98C98F" d="M10.25 18.73h22.5c.458 0 .833.382.833.847v.846a.842.842 0 0 1-.833.846h-22.5a.842.842 0 0 1-.833-.846v-.846c0-.465.375-.846.833-.846zM22.75 12.385c0 .703-.557 1.269-1.25 1.269s-1.25-.566-1.25-1.27c0-.703.557-1.269 1.25-1.269s1.25.566 1.25 1.27zM14.417 27.615c0 .704-.558 1.27-1.25 1.27-.693 0-1.25-.566-1.25-1.27 0-.703.557-1.269 1.25-1.269.692 0 1.25.566 1.25 1.27zM31.083 27.615c0 .704-.557 1.27-1.25 1.27-.692 0-1.25-.566-1.25-1.27 0-.703.558-1.269 1.25-1.269.693 0 1.25.566 1.25 1.27z"/>
        <g fill="#4D9D43" fill-rule="nonzero">
            <path d="M32.75 18.308h-22.5c-.693 0-1.25.566-1.25 1.269v.846c0 .703.557 1.27 1.25 1.27h22.5c.693 0 1.25-.567 1.25-1.27v-.846c0-.703-.557-1.27-1.25-1.27zm.417 2.115a.421.421 0 0 1-.417.423h-22.5a.421.421 0 0 1-.417-.423v-.846c0-.233.188-.423.417-.423h22.5c.23 0 .417.19.417.423v.846zM23.167 12.385c0-.936-.745-1.693-1.667-1.693s-1.667.757-1.667 1.693.745 1.692 1.667 1.692 1.667-.756 1.667-1.692zm-2.5 0c0-.466.375-.847.833-.847.458 0 .833.381.833.847a.842.842 0 0 1-.833.846.842.842 0 0 1-.833-.846z"/>
            <path d="M21.5 17.885c.12 0 .234-.053.318-.148.307-.365 3.015-3.612 3.015-5.352C24.833 10.518 23.34 9 21.5 9c-1.839 0-3.333 1.518-3.333 3.385 0 1.74 2.708 4.987 3.015 5.352a.422.422 0 0 0 .318.148zm0-8.039c1.38 0 2.5 1.137 2.5 2.539 0 1.073-1.589 3.278-2.5 4.415-.911-1.137-2.5-3.342-2.5-4.415 0-1.402 1.12-2.539 2.5-2.539zM11.5 27.615c0 .936.745 1.693 1.667 1.693s1.666-.757 1.666-1.693-.744-1.692-1.666-1.692c-.922 0-1.667.756-1.667 1.692zm2.5 0a.842.842 0 0 1-.833.847.842.842 0 0 1-.834-.847c0-.465.375-.846.834-.846.458 0 .833.381.833.846z"/>
            <path d="M12.849 22.263c-.307.365-3.016 3.612-3.016 5.352 0 1.867 1.495 3.385 3.334 3.385 1.838 0 3.333-1.518 3.333-3.385 0-1.74-2.708-4.987-3.016-5.352a.435.435 0 0 0-.317-.142.435.435 0 0 0-.318.142zm.318 7.89c-1.38 0-2.5-1.136-2.5-2.538 0-1.073 1.588-3.278 2.5-4.415.911 1.137 2.5 3.342 2.5 4.415 0 1.402-1.12 2.539-2.5 2.539zM28.167 27.615c0 .936.744 1.693 1.666 1.693.922 0 1.667-.757 1.667-1.693s-.745-1.692-1.667-1.692-1.666.756-1.666 1.692zm2.5 0a.842.842 0 0 1-.834.847.842.842 0 0 1-.833-.847c0-.465.375-.846.833-.846.459 0 .834.381.834.846z"/>
            <path d="M29.516 22.263c-.308.365-3.016 3.612-3.016 5.352 0 1.867 1.495 3.385 3.333 3.385 1.839 0 3.334-1.518 3.334-3.385 0-1.74-2.709-4.987-3.016-5.352a.435.435 0 0 0-.318-.142.435.435 0 0 0-.317.142zm.317 7.89c-1.38 0-2.5-1.136-2.5-2.538 0-1.073 1.589-3.278 2.5-4.415.912 1.137 2.5 3.342 2.5 4.415 0 1.402-1.12 2.539-2.5 2.539z"/>
        </g>
    </g>
</svg>
