<svg xmlns="http://www.w3.org/2000/svg" width="44" height="44" viewBox="0 0 44 44">
    <g fill="none" fill-rule="evenodd" transform="translate(1 1)">
        <circle cx="21" cy="21" r="21" fill-rule="nonzero" stroke="#4D9D43" stroke-width="2"/>
        <g fill-rule="nonzero">
            <path fill="#98C98F" d="M31.607 30.167V11.833c0-.81-.702-1.466-1.571-1.466H11.964c-.869 0-1.571.655-1.571 1.466v18.334c0 .81.702 1.466 1.571 1.466h18.072c.869 0 1.571-.655 1.571-1.466zM20.214 29.8h-7.857v-2.2h7.857v2.2zM15.5 21v2.2h-3.143V21H15.5zm-3.143-1.1v-2.2H15.5v2.2h-3.143zm3.143 4.4v2.2h-3.143v-2.2H15.5zm4.714 2.2h-3.143v-2.2h3.143v2.2zm0-3.3h-3.143V21h3.143v2.2zm0-3.3h-3.143v-2.2h3.143v2.2zm4.715 9.9h-3.143v-2.2h3.143v2.2zm0-3.3h-3.143v-2.2h3.143v2.2zm0-3.3h-3.143V21h3.143v2.2zm0-3.3h-3.143v-2.2h3.143v2.2zm4.714 9.9H26.5v-2.2h3.143v2.2zm0-3.3H26.5v-2.2h3.143v2.2zm0-3.3H26.5V21h3.143v2.2zm0-3.3H26.5v-2.2h3.143v2.2zm-.393-4.033h-16.5c-.432 0-.786-.33-.786-.734v-2.2c0-.403.354-.733.786-.733h16.5c.432 0 .786.33.786.733v2.2c0 .404-.354.734-.786.734z"/>
            <g fill="#4D9D43">
                <path d="M30.036 32H11.964C10.88 32 10 31.18 10 30.167V11.833C10 10.82 10.879 10 11.964 10h18.072C31.12 10 32 10.82 32 11.833v18.334C32 31.18 31.121 32 30.036 32zM11.964 10.733c-.653 0-1.178.49-1.178 1.1v18.334c0 .61.525 1.1 1.178 1.1h18.072c.653 0 1.178-.49 1.178-1.1V11.833c0-.61-.525-1.1-1.178-1.1H11.964z"/>
                <path d="M29.25 16.233h-16.5c-.653 0-1.179-.49-1.179-1.1v-2.2c0-.61.526-1.1 1.179-1.1h16.5c.653 0 1.179.49 1.179 1.1v2.2c0 .61-.526 1.1-1.179 1.1zm-16.5-3.666c-.216 0-.393.165-.393.366v2.2c0 .202.177.367.393.367h16.5c.216 0 .393-.165.393-.367v-2.2c0-.201-.177-.366-.393-.366h-16.5zM15.5 20.267h-3.143c-.216 0-.393-.165-.393-.367v-2.2c0-.202.177-.367.393-.367H15.5c.216 0 .393.165.393.367v2.2c0 .202-.177.367-.393.367zm-2.75-.734h2.357v-1.466H12.75v1.466zM20.214 20.267h-3.143c-.216 0-.392-.165-.392-.367v-2.2c0-.202.176-.367.392-.367h3.143c.216 0 .393.165.393.367v2.2c0 .202-.177.367-.393.367zm-2.75-.734h2.357v-1.466h-2.357v1.466zM24.929 20.267h-3.143c-.216 0-.393-.165-.393-.367v-2.2c0-.202.177-.367.393-.367h3.143c.216 0 .392.165.392.367v2.2c0 .202-.176.367-.392.367zm-2.75-.734h2.357v-1.466h-2.357v1.466zM29.643 20.267H26.5c-.216 0-.393-.165-.393-.367v-2.2c0-.202.177-.367.393-.367h3.143c.216 0 .393.165.393.367v2.2c0 .202-.177.367-.393.367zm-2.75-.734h2.357v-1.466h-2.357v1.466zM15.5 23.567h-3.143c-.216 0-.393-.165-.393-.367V21c0-.202.177-.367.393-.367H15.5c.216 0 .393.165.393.367v2.2c0 .202-.177.367-.393.367zm-2.75-.734h2.357v-1.466H12.75v1.466zM20.214 23.567h-3.143c-.216 0-.392-.165-.392-.367V21c0-.202.176-.367.392-.367h3.143c.216 0 .393.165.393.367v2.2c0 .202-.177.367-.393.367zm-2.75-.734h2.357v-1.466h-2.357v1.466zM24.929 23.567h-3.143c-.216 0-.393-.165-.393-.367V21c0-.202.177-.367.393-.367h3.143c.216 0 .392.165.392.367v2.2c0 .202-.176.367-.392.367zm-2.75-.734h2.357v-1.466h-2.357v1.466zM29.643 23.567H26.5c-.216 0-.393-.165-.393-.367V21c0-.202.177-.367.393-.367h3.143c.216 0 .393.165.393.367v2.2c0 .202-.177.367-.393.367zm-2.75-.734h2.357v-1.466h-2.357v1.466zM15.5 26.867h-3.143c-.216 0-.393-.165-.393-.367v-2.2c0-.202.177-.367.393-.367H15.5c.216 0 .393.165.393.367v2.2c0 .202-.177.367-.393.367zm-2.75-.734h2.357v-1.466H12.75v1.466zM20.214 26.867h-3.143c-.216 0-.392-.165-.392-.367v-2.2c0-.202.176-.367.392-.367h3.143c.216 0 .393.165.393.367v2.2c0 .202-.177.367-.393.367zm-2.75-.734h2.357v-1.466h-2.357v1.466zM24.929 26.867h-3.143c-.216 0-.393-.165-.393-.367v-2.2c0-.202.177-.367.393-.367h3.143c.216 0 .392.165.392.367v2.2c0 .202-.176.367-.392.367zm-2.75-.734h2.357v-1.466h-2.357v1.466zM29.643 26.867H26.5c-.216 0-.393-.165-.393-.367v-2.2c0-.202.177-.367.393-.367h3.143c.216 0 .393.165.393.367v2.2c0 .202-.177.367-.393.367zm-2.75-.734h2.357v-1.466h-2.357v1.466zM20.214 30.167h-7.857c-.216 0-.393-.165-.393-.367v-2.2c0-.202.177-.367.393-.367h7.857c.216 0 .393.165.393.367v2.2c0 .202-.177.367-.393.367zm-7.464-.734h7.071v-1.466H12.75v1.466zM24.929 30.167h-3.143c-.216 0-.393-.165-.393-.367v-2.2c0-.202.177-.367.393-.367h3.143c.216 0 .392.165.392.367v2.2c0 .202-.176.367-.392.367zm-2.75-.734h2.357v-1.466h-2.357v1.466zM29.643 30.167H26.5c-.216 0-.393-.165-.393-.367v-2.2c0-.202.177-.367.393-.367h3.143c.216 0 .393.165.393.367v2.2c0 .202-.177.367-.393.367zm-2.75-.734h2.357v-1.466h-2.357v1.466z"/>
                <path d="M27.679 15.5c-.654 0-1.179-.49-1.179-1.1v-.733c0-.61.525-1.1 1.179-1.1.653 0 1.178.49 1.178 1.1v.733c0 .61-.525 1.1-1.178 1.1zm0-2.2c-.216 0-.393.165-.393.367v.733c0 .202.176.367.393.367.216 0 .392-.165.392-.367v-.733c0-.202-.176-.367-.392-.367z"/>
            </g>
        </g>
    </g>
</svg>
